<?xml version="1.0" encoding="UTF-8" standalone="no"?>
<!-- Created with Inkscape (http://www.inkscape.org/) -->

<svg
   xmlns:dc="http://purl.org/dc/elements/1.1/"
   xmlns:cc="http://creativecommons.org/ns#"
   xmlns:rdf="http://www.w3.org/1999/02/22-rdf-syntax-ns#"
   xmlns:svg="http://www.w3.org/2000/svg"
   xmlns="http://www.w3.org/2000/svg"
   xmlns:sodipodi="http://sodipodi.sourceforge.net/DTD/sodipodi-0.dtd"
   xmlns:inkscape="http://www.inkscape.org/namespaces/inkscape"
   width="114.3mm"
   height="195.79167mm"
   viewBox="0 0 114.3 195.79167"
   version="1.1"
   id="svg8"
   inkscape:version="0.92.4 (5da689c313, 2019-01-14)"
   sodipodi:docname="G-Clef.svg">
  <defs
     id="defs2" />
  <sodipodi:namedview
     id="base"
     pagecolor="#ffffff"
     bordercolor="#666666"
     borderopacity="1.0"
     inkscape:pageopacity="0.0"
     inkscape:pageshadow="2"
     inkscape:zoom="0.35"
     inkscape:cx="108.62051"
     inkscape:cy="496.02877"
     inkscape:document-units="mm"
     inkscape:current-layer="layer1"
     showgrid="false"
     fit-margin-top="0"
     fit-margin-left="0"
     fit-margin-right="0"
     fit-margin-bottom="0"
     inkscape:window-width="1920"
     inkscape:window-height="1017"
     inkscape:window-x="-8"
     inkscape:window-y="-8"
     inkscape:window-maximized="1" />
  <metadata
     id="metadata5">
    <rdf:RDF>
      <cc:Work
         rdf:about="">
        <dc:format>image/svg+xml</dc:format>
        <dc:type
           rdf:resource="http://purl.org/dc/dcmitype/StillImage" />
        <dc:title></dc:title>
      </cc:Work>
    </rdf:RDF>
  </metadata>
  <g
     inkscape:label="Livello 1"
     inkscape:groupmode="layer"
     id="layer1"
     transform="translate(-59.26667,-39.598221)">
    <path
       id="path21"
       transform="matrix(0.26458333,0,0,0.26458333,59.26667,39.598221)"
       style="fill:#000000;fill-opacity:1;stroke:#000000;stroke-width:0.99999994px;stroke-linecap:butt;stroke-linejoin:miter;stroke-opacity:1"
       d="m 255.42188,31.425781 c -2.64287,-0.0026 -3.99415,1.431641 -3.99415,1.431641 0,0 -37.85687,25.714841 -52.14257,80.714848 -8.66384,33.3558 -2.87586,86.04681 3.01953,122.43554 -3.64517,3.41784 -5.87696,5.41992 -5.87696,5.41992 0,0 -99.270377,64.23199 -110.712886,149.28711 -10.851704,80.66351 30.712886,112.14258 30.712886,112.14258 0,0 48.57502,62.67089 137.90625,48.5625 l 12.09375,75.00781 c 0,0 7.85884,52.14287 -42.85546,70 -50.71427,17.85714 -55.71485,-12.14257 -55.71485,-12.14257 0,0 40,-6.42885 40,-32.85743 C 207.85742,624.99916 195,615 195,615 c 0,0 -30.71374,-23.57145 -54.28516,5 -23.57142,28.57141 -2.14257,60.71484 -2.14257,60.71484 l 8.65576,10.97165 10.98653,9.74124 c 0,0 17.49919,12.14288 31.0706,10 22.50001,2.50003 43.57226,-7.14257 43.57226,-7.14257 0,0 26.07112,-4.64317 42.14258,-47.85743 6.07142,-33.57144 -3.57227,-68.57031 -3.57227,-68.57031 l -6.57812,-40.16211 c 8.49317,-3.61062 17.51188,-8.03283 25.15039,-15.55273 79.87744,-78.63707 18.31173,-145.83711 18.31173,-145.83711 0,0 -33.81532,-36.92203 -75.04611,-31.41289 l -11.18945,-68.3086 c 58.812,-38.76244 74.35156,-115.15625 74.35156,-115.15625 0,0 9.28599,-57.85658 -12.14257,-104.285152 -14.0625,-30.468747 -23.81781,-35.711761 -28.86328,-35.716797 z m 4.88085,56.72461 c 5.37754,0.06339 11.22657,2.128627 17.55469,6.849609 34.94112,26.06718 -33.29975,99.73361 -65.63086,131.45508 L 210,212.85742 l 2.14258,-50.71484 c 0,0 15.29742,-74.379584 48.16015,-73.992189 z M 212.56055,292.31055 223.00977,357.125 c -8.4885,2.60009 -16.97354,7.14627 -25.15235,14.30273 -51.42856,45 -31.42969,95 -31.42969,95 0,0 12.85713,32.85716 45,35 0,0 -44.99861,-30.71399 -25.71289,-62.14257 19.28569,-31.42859 45.46289,-31.50391 45.46289,-31.50391 0,0 -4.64598,0.33748 0,0 l 21.01563,130.35937 c -19.58009,5.8326 -48.89771,10.88875 -79.33594,-10.2832 -78.98985,-54.94305 -60.2953,-104.60316 -60.2953,-104.60316 0,0 21.64857,-88.87289 99.99843,-130.94371 z m 29.3125,115.1289 c 21.5754,0.18898 47.59758,7.63668 58.84179,38.98828 12.78534,35.64866 -7.14257,64.28711 -7.14257,64.28711 0,0 -10.37349,14.36453 -30.92383,23.55274 z"
       inkscape:connector-curvature="0"
       sodipodi:nodetypes="ccsccscccscscsccccccccsccccscsscccsccsccscccscccsccc" />
    <rect
       style="fill:#000000;fill-opacity:1;stroke-width:0.26458332"
       id="rect838"
       width="117.55059"
       height="4.3467264"
       x="58.699707"
       y="86.089287" />
    <rect
       style="fill:#000000;fill-opacity:1;stroke-width:0.26458332"
       id="rect838-5"
       width="117.55059"
       height="4.3467264"
       x="59.266674"
       y="110.37427" />
    <rect
       style="fill:#000000;fill-opacity:1;stroke-width:0.26458332"
       id="rect838-5-6"
       width="117.55059"
       height="4.3467264"
       x="58.132744"
       y="134.94272" />
    <rect
       style="fill:#000000;fill-opacity:1;stroke-width:0.26458332"
       id="rect838-5-6-9"
       width="117.55059"
       height="4.3467264"
       x="58.132744"
       y="158.37724" />
    <rect
       style="fill:#000000;fill-opacity:1;stroke-width:0.26458332"
       id="rect838-5-6-9-1"
       width="117.55059"
       height="4.3467264"
       x="57.754768"
       y="182.94569" />
  </g>
</svg>
